# xmcd
# Copyright (c) 1998 CDDB Inc.
#
# Track frame offsets:
#	150
#	14920
#	27457
#	38395
#	48255
#	60607
#	72780
#	84825
#	95020
#	106705
#	116957
#	129627
#	142897
#	158132
#	175295
#	192415
#	208747
#	224910
#	241272
#
# Disc length: 3505 seconds
#
# Revision: 1
# Processed by: cddbd v1.5PL3 Copyright (c) Steve Scherf et al.
# Submitted via: audiograbber 1.70
#
DISCID=130daf13
DTITLE=LOVE - 3 CD BOXSET
DYEAR=1900
DGENRE=
TTITLE0=ROBIN BECK - FIRST TIME
TTITLE1=BUDDY HOLLY - RAINING IN MY HEART
TTITLE2=BILLY FURY - HALFWAY TO PARADISE
TTITLE3=CONNIE FRANCIS - STUPID CUPID
TTITLE4=BROOK BENTON - BABY
TTITLE5=PATSY CLINE - CRAZY
TTITLE6=BRIAN HYLAND - SEALED WITH A KISS
TTITLE7=LESLEY GORE - IT'S MY PARTY
TTITLE8=THE PLATTERS - ONLY YOU
TTITLE9=THE PONI TAILS - BORN TOO LATE
TTITLE10=THE SHANGRI-LAS - LEADERS OF THE PACK
TTITLE11=THE TROGGS - LOVE IS ALL AROUND
TTITLE12=STEALERS WHEEL - STUCK IN THE MIDDLE WITH YOU
TTITLE13=THE STYLE COUNCIL - LONG HOT SUMMER
TTITLE14=JENNIFER WARNES - UP WHERE WE BELONGS
TTITLE15=BOYZONE - LOVE ME FOR A REASON
TTITLE16=THE RIGHTEOUS BROTHERS - UNCHAINED MELODY
TTITLE17=JIM DIAMOND - I SHOULD HAVE KNOWN BETTER
TTITLE18=BLACK - WONDERFUL LIFE
EXTD=
EXTT0=
EXTT1=
EXTT2=
EXTT3=
EXTT4=
EXTT5=
EXTT6=
EXTT7=
EXTT8=
EXTT9=
EXTT10=
EXTT11=
EXTT12=
EXTT13=
EXTT14=
EXTT15=
EXTT16=
EXTT17=
EXTT18=
PLAYORDER=
